<mxfile host="app.diagrams.net" modified="2024-01-20T18:22:00.942Z" agent="Mozilla/5.0 (Macintosh; Intel Mac OS X 10_15_7) AppleWebKit/605.1.15 (KHTML, like Gecko) Version/17.2.1 Safari/605.1.15" etag="Kl2fNXFondNwExc71H0A" version="22.1.21" type="device" pages="3">
  <diagram id="leBQa3fBg75diuhHQ3K0" name="general routing">
    <mxGraphModel dx="1016" dy="696" grid="1" gridSize="10" guides="1" tooltips="1" connect="1" arrows="1" fold="1" page="1" pageScale="1" pageWidth="850" pageHeight="1100" math="0" shadow="0">
      <root>
        <mxCell id="0" />
        <mxCell id="1" parent="0" />
        <mxCell id="9Katl-EmATqh3d5kXYaz-1" value="" style="endArrow=none;html=1;rounded=0;" parent="1" edge="1">
          <mxGeometry width="50" height="50" relative="1" as="geometry">
            <mxPoint x="480" y="180" as="sourcePoint" />
            <mxPoint x="560" y="180" as="targetPoint" />
          </mxGeometry>
        </mxCell>
        <mxCell id="9Katl-EmATqh3d5kXYaz-2" value="" style="endArrow=none;html=1;rounded=0;" parent="1" edge="1">
          <mxGeometry width="50" height="50" relative="1" as="geometry">
            <mxPoint x="444" y="280" as="sourcePoint" />
            <mxPoint x="444" y="190" as="targetPoint" />
          </mxGeometry>
        </mxCell>
        <mxCell id="9Katl-EmATqh3d5kXYaz-3" value="" style="endArrow=none;html=1;rounded=0;" parent="1" edge="1">
          <mxGeometry width="50" height="50" relative="1" as="geometry">
            <mxPoint x="420" y="180" as="sourcePoint" />
            <mxPoint x="360" y="120" as="targetPoint" />
          </mxGeometry>
        </mxCell>
        <mxCell id="9Katl-EmATqh3d5kXYaz-5" value="Network 1" style="text;html=1;strokeColor=none;fillColor=none;align=center;verticalAlign=middle;whiteSpace=wrap;rounded=0;" parent="1" vertex="1">
          <mxGeometry x="500" y="150" width="60" height="30" as="geometry" />
        </mxCell>
        <mxCell id="9Katl-EmATqh3d5kXYaz-6" value="Network 2" style="text;html=1;strokeColor=none;fillColor=none;align=center;verticalAlign=middle;whiteSpace=wrap;rounded=0;" parent="1" vertex="1">
          <mxGeometry x="448" y="230" width="60" height="30" as="geometry" />
        </mxCell>
        <mxCell id="9Katl-EmATqh3d5kXYaz-7" value="Network 3" style="text;html=1;strokeColor=none;fillColor=none;align=center;verticalAlign=middle;whiteSpace=wrap;rounded=0;" parent="1" vertex="1">
          <mxGeometry x="380" y="115" width="60" height="30" as="geometry" />
        </mxCell>
        <mxCell id="C5MVC-utAWWd7ezczY-Y-1" value="" style="fontColor=#0066CC;verticalAlign=top;verticalLabelPosition=bottom;labelPosition=center;align=center;html=1;outlineConnect=0;fillColor=#CCCCCC;strokeColor=#6881B3;gradientColor=none;gradientDirection=north;strokeWidth=2;shape=mxgraph.networks.router;" vertex="1" parent="1">
          <mxGeometry x="390" y="170" width="100" height="30" as="geometry" />
        </mxCell>
      </root>
    </mxGraphModel>
  </diagram>
  <diagram name="gateway&#39;s table" id="chInCZSZ3-krsIsm7Ezz">
    <mxGraphModel dx="1016" dy="696" grid="1" gridSize="10" guides="1" tooltips="1" connect="1" arrows="1" fold="1" page="1" pageScale="1" pageWidth="850" pageHeight="1100" math="0" shadow="0">
      <root>
        <mxCell id="0" />
        <mxCell id="1" parent="0" />
        <mxCell id="piPeYaM90gr4zHxv_8d_-19" value="" style="endArrow=none;html=1;rounded=0;" parent="1" target="EsEfJ5WkbYCHkwk4cFm5-9" edge="1">
          <mxGeometry width="50" height="50" relative="1" as="geometry">
            <mxPoint x="673.8299999999999" y="169" as="sourcePoint" />
            <mxPoint x="673.8299999999999" y="99" as="targetPoint" />
          </mxGeometry>
        </mxCell>
        <mxCell id="piPeYaM90gr4zHxv_8d_-5" value="" style="endArrow=none;html=1;rounded=0;exitX=0.64;exitY=0.5;exitDx=0;exitDy=0;exitPerimeter=0;entryX=0.022;entryY=0.539;entryDx=0;entryDy=0;entryPerimeter=0;" parent="1" target="piPeYaM90gr4zHxv_8d_-26" edge="1">
          <mxGeometry width="50" height="50" relative="1" as="geometry">
            <mxPoint x="466" y="180" as="sourcePoint" />
            <mxPoint x="604.0000544300492" y="180.44887536693255" as="targetPoint" />
          </mxGeometry>
        </mxCell>
        <mxCell id="piPeYaM90gr4zHxv_8d_-9" value="&lt;i&gt;&lt;b&gt;192.168.100.0/24&lt;/b&gt;&lt;/i&gt;" style="text;html=1;strokeColor=none;fillColor=none;align=center;verticalAlign=middle;whiteSpace=wrap;rounded=0;" parent="1" vertex="1">
          <mxGeometry x="524" y="175" width="60" height="30" as="geometry" />
        </mxCell>
        <mxCell id="piPeYaM90gr4zHxv_8d_-11" value="&lt;i&gt;&lt;b&gt;default&lt;/b&gt;&lt;/i&gt;" style="text;html=1;strokeColor=none;fillColor=none;align=center;verticalAlign=middle;whiteSpace=wrap;rounded=0;" parent="1" vertex="1">
          <mxGeometry x="669" y="135" width="60" height="30" as="geometry" />
        </mxCell>
        <mxCell id="piPeYaM90gr4zHxv_8d_-23" value="" style="endArrow=none;html=1;rounded=0;" parent="1" edge="1">
          <mxGeometry width="50" height="50" relative="1" as="geometry">
            <mxPoint x="444.83" y="171" as="sourcePoint" />
            <mxPoint x="444.97134831460676" y="97" as="targetPoint" />
          </mxGeometry>
        </mxCell>
        <mxCell id="piPeYaM90gr4zHxv_8d_-25" value="" style="endArrow=none;html=1;rounded=0;exitX=0.64;exitY=0.5;exitDx=0;exitDy=0;exitPerimeter=0;" parent="1" edge="1">
          <mxGeometry width="50" height="50" relative="1" as="geometry">
            <mxPoint x="279" y="180" as="sourcePoint" />
            <mxPoint x="417.0000544300492" y="180.44887536693255" as="targetPoint" />
          </mxGeometry>
        </mxCell>
        <mxCell id="piPeYaM90gr4zHxv_8d_-26" value="" style="html=1;fillColor=#CCCCCC;strokeColor=#6881B3;gradientColor=none;gradientDirection=north;strokeWidth=2;shape=mxgraph.networks.bus;gradientColor=none;gradientDirection=north;fontColor=#ffffff;perimeter=backbonePerimeter;backboneSize=20;" parent="1" vertex="1">
          <mxGeometry x="609" y="168" width="140" height="24" as="geometry" />
        </mxCell>
        <mxCell id="EsEfJ5WkbYCHkwk4cFm5-2" value="outernet&lt;br&gt;192.168.100.0/24" style="text;html=1;strokeColor=none;fillColor=none;align=center;verticalAlign=middle;whiteSpace=wrap;rounded=0;" parent="1" vertex="1">
          <mxGeometry x="649" y="192" width="60" height="30" as="geometry" />
        </mxCell>
        <mxCell id="EsEfJ5WkbYCHkwk4cFm5-3" value="" style="html=1;fillColor=#CCCCCC;strokeColor=#6881B3;gradientColor=none;gradientDirection=north;strokeWidth=2;shape=mxgraph.networks.bus;gradientColor=none;gradientDirection=north;fontColor=#ffffff;perimeter=backbonePerimeter;backboneSize=20;" parent="1" vertex="1">
          <mxGeometry x="143" y="168" width="140" height="24" as="geometry" />
        </mxCell>
        <mxCell id="EsEfJ5WkbYCHkwk4cFm5-4" value="innernet&lt;br&gt;192.168.200.0/24" style="text;html=1;strokeColor=none;fillColor=none;align=center;verticalAlign=middle;whiteSpace=wrap;rounded=0;" parent="1" vertex="1">
          <mxGeometry x="183" y="192" width="60" height="30" as="geometry" />
        </mxCell>
        <mxCell id="EsEfJ5WkbYCHkwk4cFm5-5" value="&lt;i&gt;&lt;b&gt;192.168.200.0/24&lt;/b&gt;&lt;/i&gt;" style="text;html=1;strokeColor=none;fillColor=none;align=center;verticalAlign=middle;whiteSpace=wrap;rounded=0;" parent="1" vertex="1">
          <mxGeometry x="308" y="174" width="60" height="30" as="geometry" />
        </mxCell>
        <mxCell id="EsEfJ5WkbYCHkwk4cFm5-6" value="" style="html=1;fillColor=#CCCCCC;strokeColor=#6881B3;gradientColor=none;gradientDirection=north;strokeWidth=2;shape=mxgraph.networks.bus;gradientColor=none;gradientDirection=north;fontColor=#ffffff;perimeter=backbonePerimeter;backboneSize=20;" parent="1" vertex="1">
          <mxGeometry x="375" y="80" width="140" height="24" as="geometry" />
        </mxCell>
        <mxCell id="EsEfJ5WkbYCHkwk4cFm5-7" value="othernet&lt;br&gt;192.168.150.0/24" style="text;html=1;strokeColor=none;fillColor=none;align=center;verticalAlign=middle;whiteSpace=wrap;rounded=0;" parent="1" vertex="1">
          <mxGeometry x="415" y="48" width="60" height="30" as="geometry" />
        </mxCell>
        <mxCell id="EsEfJ5WkbYCHkwk4cFm5-8" value="&lt;i&gt;&lt;b&gt;192.168.150.0/24&lt;/b&gt;&lt;/i&gt;" style="text;html=1;strokeColor=none;fillColor=none;align=center;verticalAlign=middle;whiteSpace=wrap;rounded=0;" parent="1" vertex="1">
          <mxGeometry x="362" y="120" width="60" height="30" as="geometry" />
        </mxCell>
        <mxCell id="EsEfJ5WkbYCHkwk4cFm5-9" value="&lt;br&gt;Internet" style="html=1;outlineConnect=0;fillColor=#CCCCCC;strokeColor=#6881B3;gradientColor=none;gradientDirection=north;strokeWidth=2;shape=mxgraph.networks.cloud;fontColor=#ffffff;" parent="1" vertex="1">
          <mxGeometry x="629" y="20" width="90" height="50" as="geometry" />
        </mxCell>
        <mxCell id="EsEfJ5WkbYCHkwk4cFm5-10" value="" style="fontColor=#0066CC;verticalAlign=top;verticalLabelPosition=bottom;labelPosition=center;align=center;html=1;outlineConnect=0;fillColor=#CCCCCC;strokeColor=#6881B3;gradientColor=none;gradientDirection=north;strokeWidth=2;shape=mxgraph.networks.hub;" parent="1" vertex="1">
          <mxGeometry x="395" y="168" width="100" height="30" as="geometry" />
        </mxCell>
        <mxCell id="EsEfJ5WkbYCHkwk4cFm5-11" value="gateway" style="text;html=1;strokeColor=none;fillColor=none;align=center;verticalAlign=middle;whiteSpace=wrap;rounded=0;" parent="1" vertex="1">
          <mxGeometry x="415" y="194" width="60" height="30" as="geometry" />
        </mxCell>
        <mxCell id="EsEfJ5WkbYCHkwk4cFm5-12" value="" style="fontColor=#0066CC;verticalAlign=top;verticalLabelPosition=bottom;labelPosition=center;align=center;html=1;outlineConnect=0;fillColor=#CCCCCC;strokeColor=#6881B3;gradientColor=none;gradientDirection=north;strokeWidth=2;shape=mxgraph.networks.hub;" parent="1" vertex="1">
          <mxGeometry x="624" y="100" width="100" height="30" as="geometry" />
        </mxCell>
        <mxCell id="EsEfJ5WkbYCHkwk4cFm5-13" value="firewall&lt;br&gt;192.168.100.1" style="text;html=1;strokeColor=none;fillColor=none;align=center;verticalAlign=middle;whiteSpace=wrap;rounded=0;" parent="1" vertex="1">
          <mxGeometry x="563" y="115" width="60" height="30" as="geometry" />
        </mxCell>
      </root>
    </mxGraphModel>
  </diagram>
  <diagram id="gEl7WwLCXsu6mZycD02N" name="ipsec">
    <mxGraphModel dx="813" dy="557" grid="1" gridSize="10" guides="1" tooltips="1" connect="1" arrows="1" fold="1" page="1" pageScale="1" pageWidth="850" pageHeight="1100" math="0" shadow="0">
      <root>
        <mxCell id="0" />
        <mxCell id="1" parent="0" />
        <mxCell id="T752kcCHNWVN4_LURDBs-1" value="" style="fontColor=#0066CC;verticalAlign=top;verticalLabelPosition=bottom;labelPosition=center;align=center;html=1;outlineConnect=0;fillColor=#CCCCCC;strokeColor=#6881B3;gradientColor=none;gradientDirection=north;strokeWidth=2;shape=mxgraph.networks.hub;" vertex="1" parent="1">
          <mxGeometry x="240" y="312" width="100" height="30" as="geometry" />
        </mxCell>
        <mxCell id="T752kcCHNWVN4_LURDBs-2" value="" style="fontColor=#0066CC;verticalAlign=top;verticalLabelPosition=bottom;labelPosition=center;align=center;html=1;outlineConnect=0;fillColor=#CCCCCC;strokeColor=#6881B3;gradientColor=none;gradientDirection=north;strokeWidth=2;shape=mxgraph.networks.laptop;" vertex="1" parent="1">
          <mxGeometry x="70" y="300" width="100" height="55" as="geometry" />
        </mxCell>
        <mxCell id="T752kcCHNWVN4_LURDBs-4" value="" style="html=1;outlineConnect=0;fillColor=#CCCCCC;strokeColor=#6881B3;gradientColor=none;gradientDirection=north;strokeWidth=2;shape=mxgraph.networks.comm_link_edge;html=1;rounded=0;entryX=0;entryY=0.5;entryDx=0;entryDy=0;entryPerimeter=0;" edge="1" parent="1" target="T752kcCHNWVN4_LURDBs-1">
          <mxGeometry width="100" height="100" relative="1" as="geometry">
            <mxPoint x="150" y="322" as="sourcePoint" />
            <mxPoint x="250" y="222" as="targetPoint" />
          </mxGeometry>
        </mxCell>
        <mxCell id="T752kcCHNWVN4_LURDBs-5" value="duckduckgo.com" style="text;html=1;strokeColor=none;fillColor=none;align=center;verticalAlign=middle;whiteSpace=wrap;rounded=0;" vertex="1" parent="1">
          <mxGeometry x="235" y="120" width="60" height="30" as="geometry" />
        </mxCell>
        <mxCell id="T752kcCHNWVN4_LURDBs-6" value="your home gateway" style="text;html=1;strokeColor=none;fillColor=none;align=center;verticalAlign=middle;whiteSpace=wrap;rounded=0;" vertex="1" parent="1">
          <mxGeometry x="260" y="345" width="60" height="30" as="geometry" />
        </mxCell>
        <mxCell id="T752kcCHNWVN4_LURDBs-8" value="your ISP&#39;s router(s)" style="text;html=1;strokeColor=none;fillColor=none;align=center;verticalAlign=middle;whiteSpace=wrap;rounded=0;" vertex="1" parent="1">
          <mxGeometry x="430" y="345" width="60" height="30" as="geometry" />
        </mxCell>
        <mxCell id="T752kcCHNWVN4_LURDBs-9" value="" style="endArrow=none;html=1;rounded=0;exitX=1;exitY=0.5;exitDx=0;exitDy=0;exitPerimeter=0;entryX=0;entryY=0.5;entryDx=0;entryDy=0;entryPerimeter=0;strokeColor=#FF0000;" edge="1" parent="1" source="T752kcCHNWVN4_LURDBs-1" target="C0jdlPZDxTLfCB3guhQ--2">
          <mxGeometry width="50" height="50" relative="1" as="geometry">
            <mxPoint x="400" y="310" as="sourcePoint" />
            <mxPoint x="410" y="327" as="targetPoint" />
          </mxGeometry>
        </mxCell>
        <mxCell id="C0jdlPZDxTLfCB3guhQ--2" value="" style="fontColor=#0066CC;verticalAlign=top;verticalLabelPosition=bottom;labelPosition=center;align=center;html=1;outlineConnect=0;fillColor=#CCCCCC;strokeColor=#6881B3;gradientColor=none;gradientDirection=north;strokeWidth=2;shape=mxgraph.networks.router;" vertex="1" parent="1">
          <mxGeometry x="410" y="312" width="100" height="30" as="geometry" />
        </mxCell>
        <mxCell id="Z5MJG5yPWMpjjyHukn_q-1" value="" style="fontColor=#0066CC;verticalAlign=top;verticalLabelPosition=bottom;labelPosition=center;align=center;html=1;outlineConnect=0;fillColor=#CCCCCC;strokeColor=#6881B3;gradientColor=none;gradientDirection=north;strokeWidth=2;shape=mxgraph.networks.mainframe;" vertex="1" parent="1">
          <mxGeometry x="750" y="277.5" width="80" height="100" as="geometry" />
        </mxCell>
        <mxCell id="Z5MJG5yPWMpjjyHukn_q-3" value="" style="endArrow=none;html=1;rounded=0;exitX=1;exitY=0.5;exitDx=0;exitDy=0;exitPerimeter=0;" edge="1" parent="1" source="C0jdlPZDxTLfCB3guhQ--2">
          <mxGeometry width="50" height="50" relative="1" as="geometry">
            <mxPoint x="450" y="330" as="sourcePoint" />
            <mxPoint x="750" y="327" as="targetPoint" />
          </mxGeometry>
        </mxCell>
        <mxCell id="Z5MJG5yPWMpjjyHukn_q-2" value="&lt;br&gt;" style="html=1;outlineConnect=0;fillColor=#CCCCCC;strokeColor=#6881B3;gradientColor=none;gradientDirection=north;strokeWidth=2;shape=mxgraph.networks.cloud;fontColor=#ffffff;" vertex="1" parent="1">
          <mxGeometry x="590" y="292" width="90" height="50" as="geometry" />
        </mxCell>
        <mxCell id="Z5MJG5yPWMpjjyHukn_q-4" value="" style="endArrow=none;html=1;rounded=0;exitX=0.5;exitY=0;exitDx=0;exitDy=0;exitPerimeter=0;entryX=0.5;entryY=1;entryDx=0;entryDy=0;entryPerimeter=0;strokeColor=#FF0000;" edge="1" parent="1" source="C0jdlPZDxTLfCB3guhQ--2" target="C0jdlPZDxTLfCB3guhQ--1">
          <mxGeometry width="50" height="50" relative="1" as="geometry">
            <mxPoint x="450" y="300" as="sourcePoint" />
            <mxPoint x="500" y="250" as="targetPoint" />
          </mxGeometry>
        </mxCell>
        <mxCell id="Z5MJG5yPWMpjjyHukn_q-5" value="" style="endArrow=none;html=1;rounded=0;entryX=0.5;entryY=0.05;entryDx=0;entryDy=0;entryPerimeter=0;exitX=0.5;exitY=1;exitDx=0;exitDy=0;exitPerimeter=0;strokeColor=#00994D;" edge="1" parent="1" source="Z5MJG5yPWMpjjyHukn_q-6" target="Z5MJG5yPWMpjjyHukn_q-1">
          <mxGeometry width="50" height="50" relative="1" as="geometry">
            <mxPoint x="750" y="202.5" as="sourcePoint" />
            <mxPoint x="790" y="255" as="targetPoint" />
          </mxGeometry>
        </mxCell>
        <mxCell id="Z5MJG5yPWMpjjyHukn_q-8" value="UVA&#39;s router" style="text;html=1;strokeColor=none;fillColor=none;align=center;verticalAlign=middle;whiteSpace=wrap;rounded=0;" vertex="1" parent="1">
          <mxGeometry x="750" y="152.5" width="80" height="30" as="geometry" />
        </mxCell>
        <mxCell id="Z5MJG5yPWMpjjyHukn_q-9" value="UVA&#39;s VPN server" style="text;html=1;strokeColor=none;fillColor=none;align=center;verticalAlign=middle;whiteSpace=wrap;rounded=0;" vertex="1" parent="1">
          <mxGeometry x="740" y="377.5" width="100" height="30" as="geometry" />
        </mxCell>
        <mxCell id="Z5MJG5yPWMpjjyHukn_q-10" value="" style="endArrow=none;html=1;rounded=0;strokeColor=#00994D;" edge="1" parent="1">
          <mxGeometry width="50" height="50" relative="1" as="geometry">
            <mxPoint x="760" y="197.07999999999998" as="sourcePoint" />
            <mxPoint x="500" y="197.07999999999998" as="targetPoint" />
          </mxGeometry>
        </mxCell>
        <mxCell id="Z5MJG5yPWMpjjyHukn_q-6" value="" style="fontColor=#0066CC;verticalAlign=top;verticalLabelPosition=bottom;labelPosition=center;align=center;html=1;outlineConnect=0;fillColor=#CCCCCC;strokeColor=#6881B3;gradientColor=none;gradientDirection=north;strokeWidth=2;shape=mxgraph.networks.router;" vertex="1" parent="1">
          <mxGeometry x="740" y="182.5" width="100" height="30" as="geometry" />
        </mxCell>
        <mxCell id="Z5MJG5yPWMpjjyHukn_q-11" value="" style="endArrow=none;html=1;rounded=0;" edge="1" parent="1">
          <mxGeometry width="50" height="50" relative="1" as="geometry">
            <mxPoint x="445" y="197.07999999999998" as="sourcePoint" />
            <mxPoint x="295" y="197.07999999999998" as="targetPoint" />
          </mxGeometry>
        </mxCell>
        <mxCell id="T752kcCHNWVN4_LURDBs-3" value="" style="fontColor=#0066CC;verticalAlign=top;verticalLabelPosition=bottom;labelPosition=center;align=center;html=1;outlineConnect=0;fillColor=#CCCCCC;strokeColor=#6881B3;gradientColor=none;gradientDirection=north;strokeWidth=2;shape=mxgraph.networks.server;" vertex="1" parent="1">
          <mxGeometry x="220" y="150" width="90" height="100" as="geometry" />
        </mxCell>
        <mxCell id="C0jdlPZDxTLfCB3guhQ--1" value="&lt;br&gt;Internet" style="html=1;outlineConnect=0;fillColor=#CCCCCC;strokeColor=#6881B3;gradientColor=none;gradientDirection=north;strokeWidth=2;shape=mxgraph.networks.cloud;fontColor=#ffffff;" vertex="1" parent="1">
          <mxGeometry x="400" y="142.5" width="120" height="70" as="geometry" />
        </mxCell>
        <mxCell id="Z5MJG5yPWMpjjyHukn_q-12" value="" style="html=1;outlineConnect=0;fillColor=#CCCCCC;strokeColor=#6881B3;gradientColor=none;gradientDirection=north;strokeWidth=2;shape=mxgraph.networks.bus;gradientColor=none;gradientDirection=north;fontColor=#ffffff;perimeter=backbonePerimeter;backboneSize=20;" vertex="1" parent="1">
          <mxGeometry x="153" y="310.25" width="600" height="27.5" as="geometry" />
        </mxCell>
        <mxCell id="Z5MJG5yPWMpjjyHukn_q-14" value="Internet from your ISP to UVA" style="text;html=1;strokeColor=none;fillColor=none;align=center;verticalAlign=middle;whiteSpace=wrap;rounded=0;" vertex="1" parent="1">
          <mxGeometry x="587.5" y="342" width="95" height="30" as="geometry" />
        </mxCell>
      </root>
    </mxGraphModel>
  </diagram>
</mxfile>
